<svg width="161" height="161" viewBox="0 0 161 161" fill="none" xmlns="http://www.w3.org/2000/svg">
<path d="M101.077 47.601C79.0235 36.0512 75.8524 47.601 60.8618 32.2975C42.8442 16.1277 33.0428 47.601 33.0428 82.9725C33.0428 102.474 62.7357 150.106 107.563 134.658C152.391 119.21 117.21 56.05 101.077 47.601Z" fill="#DDDDDF"/>
<path d="M116.621 53.535L81.4466 35.5952L45.5828 53.535V81.1348C45.5828 96.5906 55.6982 105.975 60.7559 108.734L81.4466 119.774L100.758 108.734C114 102.663 116.851 87.8047 116.621 81.1348V53.535Z" fill="white"/>
<path d="M115.983 81.1347V53.5349L91.4284 41.0189C87.8884 43.1459 80.8085 50.2713 80.8085 61.757V119.774L100.12 108.734C113.362 102.662 116.212 87.8046 115.983 81.1347Z" fill="#F37320"/>
<path fill-rule="evenodd" clip-rule="evenodd" d="M49.7611 58.3636C49.7611 57.6202 50.1734 56.9381 50.8317 56.5927L70.6629 46.1852C71.641 45.6719 72.85 46.0487 73.3633 47.0267C73.8766 48.0048 73.4998 49.2138 72.5217 49.727L53.7611 59.5727L53.7611 77.4916C53.7611 78.5962 52.8657 79.4916 51.7611 79.4916C50.6565 79.4916 49.7611 78.5962 49.7611 77.4916L49.7611 58.3636Z" fill="#313135"/>
<path fill-rule="evenodd" clip-rule="evenodd" d="M74.9499 46.1942C74.4366 45.2161 74.8134 44.0071 75.7914 43.4938L80.2364 41.1611C81.2144 40.6478 82.4234 41.0246 82.9367 42.0027C83.45 42.9807 83.0732 44.1897 82.0952 44.703L77.6502 47.0357C76.6722 47.549 75.4632 47.1722 74.9499 46.1942Z" fill="#313135"/>
<path fill-rule="evenodd" clip-rule="evenodd" d="M78.2457 34.96C80.264 33.9504 82.6418 33.9597 84.6522 34.985L114.744 50.3327C117.123 51.5461 118.621 53.9911 118.621 56.6617V81.1009C118.739 84.71 118.035 90.3761 115.571 95.9654C113.096 101.58 108.795 107.221 101.674 110.514L84.8875 120.111C82.7668 121.323 80.172 121.361 78.0168 120.211L59.8144 110.499L59.7979 110.49C54.2817 107.48 43.5828 97.5102 43.5828 81.1347V56.6892C43.5828 53.9986 45.1027 51.5388 47.509 50.3351L78.2457 34.96ZM82.8348 38.5483C81.9563 38.1002 80.9172 38.0962 80.0352 38.5374L49.2985 53.9125C48.247 54.4385 47.5828 55.5134 47.5828 56.6892V81.1347C47.5828 95.6626 57.1039 104.459 61.7061 106.975C61.7087 106.976 61.7113 106.977 61.7139 106.979L79.8998 116.682C80.8416 117.185 81.9755 117.168 82.9023 116.638L99.7651 106.998C99.8169 106.969 99.8699 106.941 99.9241 106.916C105.996 104.132 109.717 99.3299 111.911 94.3521C114.118 89.3453 114.727 84.2662 114.622 81.2036C114.621 81.1806 114.621 81.1576 114.621 81.1347V56.6617C114.621 55.4947 113.966 54.4262 112.926 53.896L82.8348 38.5483Z" fill="#313135"/>
<path fill-rule="evenodd" clip-rule="evenodd" d="M19.419 22.1952C19.419 23.0236 20.0906 23.6952 20.919 23.6952L29.2142 23.6952C30.0427 23.6952 30.7142 23.0236 30.7142 22.1952C30.7142 21.3668 30.0427 20.6952 29.2142 20.6952L20.919 20.6952C20.0906 20.6952 19.419 21.3668 19.419 22.1952Z" fill="#313135"/>
<path fill-rule="evenodd" clip-rule="evenodd" d="M111.549 28.2983C112.378 28.2983 113.049 28.9699 113.049 29.7983L113.049 34.7983C113.049 35.6268 112.378 36.2983 111.549 36.2983C110.721 36.2983 110.049 35.6268 110.049 34.7983L110.049 29.7983C110.049 28.9699 110.721 28.2983 111.549 28.2983Z" fill="#313135"/>
<path fill-rule="evenodd" clip-rule="evenodd" d="M126.886 40.0983C127.715 40.0983 128.386 40.7698 128.386 41.5983L128.386 46.5983C128.386 47.4267 127.715 48.0983 126.886 48.0983C126.058 48.0983 125.386 47.4267 125.386 46.5983L125.386 41.5983C125.386 40.7698 126.058 40.0983 126.886 40.0983Z" fill="#313135"/>
<path fill-rule="evenodd" clip-rule="evenodd" d="M115.633 32.2617C115.633 33.0901 114.961 33.7617 114.133 33.7617L109.133 33.7617C108.305 33.7617 107.633 33.0901 107.633 32.2617C107.633 31.4333 108.305 30.7617 109.133 30.7617L114.133 30.7617C114.961 30.7617 115.633 31.4333 115.633 32.2617Z" fill="#313135"/>
<path fill-rule="evenodd" clip-rule="evenodd" d="M130.97 44.0616C130.97 44.8901 130.299 45.5616 129.47 45.5616L124.47 45.5616C123.642 45.5616 122.97 44.8901 122.97 44.0616C122.97 43.2332 123.642 42.5616 124.47 42.5616L129.47 42.5616C130.299 42.5616 130.97 43.2332 130.97 44.0616Z" fill="#313135"/>
</svg>
