<svg width="324" height="89" viewBox="0 0 324 89" fill="none" xmlns="http://www.w3.org/2000/svg">
<path d="M35.7368 6.78L31.1718 38.24C30.9518 39.945 29.8518 40.33 28.5868 40.33C27.1018 40.33 26.3318 39.34 26.3318 37.855C26.3318 37.305 26.4418 36.59 26.6068 35.655L31.9418 4.195C32.4368 1.445 33.9768 0.509997 35.7368 0.509997C37.6618 0.509997 38.7068 1.225 39.2568 3.04L47.6168 31.695H47.7268L56.0868 3.04C56.6368 1.225 57.6818 0.509997 59.6068 0.509997C61.3668 0.509997 62.9068 1.445 63.4018 4.195L68.7368 35.655C68.9018 36.59 69.0118 37.305 69.0118 37.855C69.0118 39.34 68.2418 40.33 66.7568 40.33C65.4918 40.33 64.3918 39.945 64.1718 38.24L59.6068 6.78H59.4968L50.1468 38.35C49.6518 39.945 48.7718 40.33 47.6718 40.33C46.5718 40.33 45.6918 39.945 45.1968 38.35L35.8468 6.78H35.7368ZM73.796 24.49V3.095C73.796 1.5 74.731 0.509997 76.216 0.509997C77.701 0.509997 78.636 1.5 78.636 3.095V26.36C78.636 32.52 82.816 36.15 88.976 36.15C95.136 36.15 99.316 32.52 99.316 26.36V3.095C99.316 1.5 100.251 0.509997 101.736 0.509997C103.221 0.509997 104.156 1.5 104.156 3.095V24.49C104.156 37.69 95.686 40.33 88.976 40.33C82.266 40.33 73.796 37.69 73.796 24.49ZM110.809 37.36V3.48C110.809 1.995 111.579 0.839999 113.394 0.839999H122.909C134.569 0.839999 140.289 9.86 140.289 20.2C140.289 31.915 134.074 40 123.569 40H113.394C111.579 40 110.809 38.845 110.809 37.36ZM115.649 5.02V35.82H122.579C131.709 35.82 135.119 28.175 135.119 20.2C135.119 12.17 131.489 5.02 122.249 5.02H115.649ZM149.743 31.475L147.213 38.515C146.828 39.56 146.168 40.33 144.848 40.33C143.583 40.33 142.538 39.56 142.538 38.295C142.538 37.635 143.033 36.37 143.198 35.875L155.353 3.48C155.958 1.775 156.948 0.509997 158.818 0.509997C160.688 0.509997 161.678 1.775 162.283 3.48L174.438 35.875C174.603 36.37 175.098 37.635 175.098 38.295C175.098 39.56 174.053 40.33 172.788 40.33C171.468 40.33 170.808 39.56 170.423 38.515L167.893 31.475H149.743ZM166.408 27.295L158.873 6.12H158.763L151.228 27.295H166.408ZM181.373 37.745V5.35H174.058C172.683 5.35 171.693 4.635 171.693 3.095C171.693 1.555 172.683 0.839999 174.058 0.839999H193.528C194.903 0.839999 195.893 1.555 195.893 3.095C195.893 4.635 194.903 5.35 193.528 5.35H186.213V37.745C186.213 39.34 185.278 40.33 183.793 40.33C182.308 40.33 181.373 39.34 181.373 37.745ZM204.051 22.675V35.49H215.711C217.086 35.49 218.076 36.205 218.076 37.745C218.076 39.285 217.086 40 215.711 40H201.796C199.981 40 199.211 38.845 199.211 37.36V3.48C199.211 1.995 199.981 0.839999 201.796 0.839999H215.711C217.086 0.839999 218.076 1.555 218.076 3.095C218.076 4.635 217.086 5.35 215.711 5.35H204.051V18.165H214.666C216.041 18.165 217.031 18.88 217.031 20.42C217.031 21.96 216.041 22.675 214.666 22.675H204.051ZM241.964 31.475L239.434 38.515C239.049 39.56 238.389 40.33 237.069 40.33C235.804 40.33 234.759 39.56 234.759 38.295C234.759 37.635 235.254 36.37 235.419 35.875L247.574 3.48C248.179 1.775 249.169 0.509997 251.039 0.509997C252.909 0.509997 253.899 1.775 254.504 3.48L266.659 35.875C266.824 36.37 267.319 37.635 267.319 38.295C267.319 39.56 266.274 40.33 265.009 40.33C263.689 40.33 263.029 39.56 262.644 38.515L260.114 31.475H241.964ZM258.629 27.295L251.094 6.12H250.984L243.449 27.295H258.629ZM275.916 3.095V35.49H286.256C287.631 35.49 288.621 36.205 288.621 37.745C288.621 39.285 287.631 40 286.256 40H273.661C271.846 40 271.076 38.845 271.076 37.36V3.095C271.076 1.5 272.011 0.509997 273.496 0.509997C274.981 0.509997 275.916 1.5 275.916 3.095ZM7.70207 64.075H26.5121V51.26C26.5121 48.62 28.2171 47.245 30.2521 47.245C32.2871 47.245 33.8821 48.62 33.8821 51.26V84.535C33.8821 87.23 32.2871 88.55 30.2521 88.55C28.2171 88.55 26.5121 87.23 26.5121 84.535V70.565H7.70207V84.535C7.70207 87.23 6.05207 88.55 4.01707 88.55C1.98207 88.55 0.277071 87.23 0.277071 84.535V51.26C0.277071 48.62 1.98207 47.245 4.01707 47.245C6.05207 47.245 7.70207 48.62 7.70207 51.26V64.075ZM46.4277 84.535C46.4277 87.23 44.7777 88.55 42.7427 88.55C40.7077 88.55 39.0027 87.23 39.0027 84.535V51.26C39.0027 48.675 40.7077 47.245 42.7427 47.245C44.7777 47.245 46.4277 48.675 46.4277 51.26V84.535ZM64.1686 47.63C68.6236 47.63 74.0136 48.235 77.3136 54.065C79.6236 58.135 79.4036 63.91 77.2586 67.65C73.6836 73.81 68.8436 73.645 63.1236 73.645H58.8886V84.535C58.8886 87.23 57.2386 88.55 55.2036 88.55C53.1686 88.55 51.4636 87.23 51.4636 84.535V51.59C51.4636 49.005 53.1686 47.63 55.2036 47.63H64.1686ZM58.8886 53.955V67.43H64.9386C68.6236 67.43 71.7036 64.405 71.7036 60.72C71.7036 56.98 68.7336 53.955 64.9386 53.955H58.8886ZM101.41 47.245C112.795 47.245 120.165 56.375 120.165 67.815C120.165 79.255 113.07 88.55 101.41 88.55C89.3105 88.55 82.7105 79.255 82.7105 67.815C82.7105 56.375 89.6405 47.245 101.41 47.245ZM90.1905 67.815C90.1905 75.79 94.2055 82.335 101.41 82.335C108.395 82.335 112.685 75.79 112.685 67.815C112.685 59.785 108.285 53.46 101.41 53.46C94.4255 53.46 90.1905 59.785 90.1905 67.815ZM142.072 47.63C143.832 47.63 145.482 49.005 145.482 50.82C145.482 52.635 144.052 54.285 142.292 54.285H135.197V84.535C135.197 87.23 133.657 88.55 131.622 88.55C129.587 88.55 127.882 87.23 127.882 84.535V54.285H120.787C118.972 54.285 117.542 52.635 117.542 50.82C117.542 49.005 119.082 47.63 121.007 47.63H142.072ZM166.398 81.345C168.213 81.345 169.643 82.995 169.643 84.81C169.643 86.57 167.993 88 166.178 88H152.098C150.063 88 148.358 86.625 148.358 83.985V51.59C148.358 49.005 150.063 47.63 152.098 47.63H166.013C167.828 47.63 169.478 49.005 169.478 50.82C169.478 52.635 168.048 54.285 166.233 54.285H155.783V64.405H165.023C166.838 64.405 168.433 65.835 168.433 67.65C168.433 69.465 167.058 71.06 165.243 71.06H155.783V81.345H166.398ZM202.149 50.765C203.304 51.755 203.744 53.955 202.149 55.385C200.884 56.595 199.069 55.935 197.584 55.165C195.824 54.23 194.229 53.24 191.534 53.35C183.779 53.68 179.984 60.005 180.314 67.815C180.644 75.79 183.284 81.455 191.534 82.61C193.184 82.83 195.439 82.225 197.309 80.96C198.409 80.135 199.949 79.31 201.544 80.025C203.139 80.795 203.579 83.27 202.259 84.865C201.489 85.8 198.794 88.55 191.534 88.55C179.434 88.55 172.834 79.255 172.834 67.815C172.834 56.375 179.764 47.355 191.534 47.245C197.364 47.355 200.004 48.785 202.149 50.765ZM239.836 83.985C240.551 85.47 239.891 87.725 238.186 88.33C236.481 88.935 234.721 88.055 234.006 86.46L231.256 79.915H214.316L211.841 86.46C211.236 88.055 209.366 88.935 207.661 88.33C206.011 87.725 205.461 85.47 206.011 83.985L218.001 51.975C219.211 48.675 220.641 47.245 223.281 47.245C225.866 47.245 227.406 48.675 228.506 51.81L239.836 83.985ZM216.736 73.535H229.386L223.336 55.66L216.736 73.535ZM250.959 54.23V65.89H257.724C260.694 65.89 263.444 63.03 263.334 59.785C263.224 56.595 260.969 54.23 257.229 54.23H250.959ZM259.429 47.63C266.194 47.63 270.429 53.405 270.429 59.895C270.429 66.275 265.754 70.95 259.319 70.895L269.824 82.775C270.869 83.82 270.979 86.24 269.659 87.45C268.339 88.605 266.139 88.495 264.984 87.285L250.959 71.665V84.535C250.959 87.23 249.309 88.55 247.274 88.55C245.239 88.55 243.534 87.23 243.534 84.535V51.59C243.534 49.005 245.239 47.63 247.274 47.63H259.429ZM282.004 84.535C282.004 87.23 280.354 88.55 278.319 88.55C276.284 88.55 274.579 87.23 274.579 84.535V51.26C274.579 48.675 276.284 47.245 278.319 47.245C280.354 47.245 282.004 48.675 282.004 51.26V84.535ZM305.19 47.245C316.575 47.245 323.945 56.375 323.945 67.815C323.945 79.255 316.85 88.55 305.19 88.55C293.09 88.55 286.49 79.255 286.49 67.815C286.49 56.375 293.42 47.245 305.19 47.245ZM293.97 67.815C293.97 75.79 297.985 82.335 305.19 82.335C312.175 82.335 316.465 75.79 316.465 67.815C316.465 59.785 312.065 53.46 305.19 53.46C298.205 53.46 293.97 59.785 293.97 67.815Z" fill="white"/>
</svg>
